<svg width="377" height="157" viewBox="0 0 377 157" fill="none" xmlns="http://www.w3.org/2000/svg">
<path d="M248.034 55.5751C238.478 72.6677 246.05 96.0092 230.741 110.399C224.669 116.112 216.611 119.499 208.325 120.157C199.403 120.859 191.09 118.031 184.311 112.27C175.976 105.204 170.066 95.5655 160.571 89.8332C156.079 87.1299 151.058 85.3845 145.766 85.6429C140.564 85.9109 135.697 88.252 131.662 91.4701C123.151 98.2334 118.403 108.178 111.505 116.349C108.208 120.258 104.318 123.721 99.5514 125.672C93.9701 127.96 87.7842 127.836 81.9349 126.803C75.903 125.73 70.09 123.698 64.339 121.636C58.6592 119.608 53.0261 117.441 47.4801 115.106C36.2055 110.397 25.2016 105.098 14.5117 99.2026C11.8524 97.7434 9.20863 96.2378 6.58047 94.6859C4.96645 93.7423 3.17157 96.071 4.81032 97.0332C15.5086 103.303 26.5517 109.039 37.8565 114.119C49.1395 119.202 60.7671 123.906 72.6357 127.493C78.4555 129.258 84.4528 130.557 90.5773 130.403C96.3024 130.238 101.783 128.495 106.445 125.167C115.267 118.89 119.993 108.794 126.712 100.604C130.127 96.4348 134.149 92.4897 139.139 90.2417C144.026 88.0522 149.373 88.0289 154.351 89.9351C164.89 93.9744 171.37 103.731 179.12 111.365C182.766 114.961 186.78 118.195 191.494 120.271C195.357 121.959 199.559 122.913 203.764 123.095C212.376 123.496 221.051 121.039 228.177 116.215C231.668 113.847 234.787 110.868 237.222 107.433C240.005 103.486 241.718 99.004 242.853 94.3386C245.297 84.21 244.743 73.5094 247.871 63.5275C248.619 61.1473 249.597 58.8231 250.815 56.6417C251.674 55.0411 248.933 53.9468 248.034 55.5751Z" fill="#41CCCF"/>
<path d="M244.815 11.7103C235.258 28.8029 242.831 52.1444 227.522 66.5343C221.449 72.2477 213.392 75.634 205.105 76.2917C196.184 76.9945 187.871 74.166 181.091 68.4051C172.757 61.3388 166.847 51.7007 157.352 45.9684C152.859 43.2651 147.838 41.5197 142.546 41.7781C137.344 42.0461 132.478 44.3871 128.442 47.6053C119.931 54.3685 115.184 64.3131 108.286 72.4839C104.989 76.3933 101.098 79.8561 96.3319 81.8077C90.7505 84.0947 84.5647 83.9709 78.7154 82.9384C72.6835 81.8652 66.8705 79.8337 61.1195 77.7713C55.4396 75.743 49.8066 73.5757 44.2606 71.2415C32.9859 66.5326 21.982 61.2333 11.2922 55.3377C8.63283 53.8786 5.98909 52.373 3.36093 50.8211C1.74691 49.8775 -0.0479717 52.2062 1.59077 53.1684C12.289 59.4383 23.3322 65.1737 34.6369 70.254C45.92 75.3372 57.5476 80.0407 69.4161 83.628C75.2359 85.3936 81.2332 86.6925 87.3577 86.5377C93.0828 86.3729 98.5639 84.6301 103.225 81.3019C112.048 75.0249 116.774 64.9287 123.493 56.739C126.908 52.57 130.929 48.6249 135.919 46.3768C140.807 44.1874 146.154 44.1641 151.131 46.0703C161.671 50.1096 168.15 59.8664 175.901 67.5007C179.546 71.0962 183.561 74.3305 188.274 76.4063C192.138 78.0937 196.34 79.0487 200.544 79.2304C209.156 79.6313 217.831 77.1741 224.957 72.3506C228.449 69.982 231.567 67.0033 234.002 63.5685C236.786 59.621 238.499 55.1392 239.633 50.4738C242.078 40.3452 241.523 29.6445 244.651 19.6627C245.4 17.2824 246.377 14.9583 247.596 12.7769C248.454 11.1763 245.713 10.082 244.815 11.7103Z" fill="#41CCCF"/>
<path d="M245.109 34.7798C235.553 51.8725 243.125 75.2139 227.816 89.6038C221.744 95.3172 213.686 98.7036 205.399 99.3612C196.478 100.064 188.165 97.2355 181.385 91.4746C173.051 84.4083 167.141 74.7702 157.646 69.0379C153.153 66.3346 148.132 64.5892 142.841 64.8477C137.638 65.1156 132.772 67.4567 128.737 70.6748C120.226 77.4381 115.478 87.3826 108.58 95.5535C105.283 99.4629 101.393 102.926 96.6262 104.877C91.0449 107.164 84.8591 107.04 79.0097 106.008C72.9779 104.935 67.1648 102.903 61.4139 100.841C55.734 98.8126 50.1009 96.6453 44.5549 94.3111C33.2803 89.6021 22.2764 84.3029 11.5865 78.4073C8.9272 76.9481 6.28346 75.4426 3.6553 73.8906C2.04128 72.947 0.246401 75.2757 1.88515 76.238C12.5834 82.5078 23.6266 88.2433 34.9313 93.3235C46.2144 98.4068 57.842 103.11 69.7105 106.698C75.5303 108.463 81.5276 109.762 87.6521 109.607C93.3772 109.442 98.8583 107.7 103.519 104.371C112.342 98.0944 117.068 87.9983 123.787 79.8085C127.202 75.6395 131.224 71.6944 136.214 69.4464C141.101 67.2569 146.448 67.2337 151.426 69.1398C161.965 73.1792 168.444 82.9359 176.195 90.5702C179.84 94.1657 183.855 97.4001 188.569 99.4758C192.432 101.163 196.634 102.118 200.838 102.3C209.451 102.701 218.126 100.244 225.252 95.4202C228.743 93.0516 231.862 90.0729 234.297 86.6381C237.08 82.6905 238.793 78.2087 239.928 73.5433C242.372 63.4147 241.817 52.7141 244.946 42.7323C245.694 40.352 246.672 38.0278 247.89 35.8464C248.748 34.2459 246.008 33.1515 245.109 34.7798Z" fill="#41CCCF"/>
<path d="M361.118 15.0148H248.296C241.092 15.0148 235.252 20.855 235.252 28.0593V140.881C235.252 148.086 241.092 153.926 248.296 153.926H361.118C368.323 153.926 374.163 148.086 374.163 140.881V28.0593C374.163 20.855 368.323 15.0148 361.118 15.0148Z" fill="#C5DCDD" stroke="black" stroke-width="2" stroke-linecap="round" stroke-linejoin="round"/>
<path d="M345.578 2.65926H232.756C225.551 2.65926 219.711 8.49945 219.711 15.7037V128.526C219.711 135.73 225.551 141.57 232.756 141.57H345.578C352.782 141.57 358.622 135.73 358.622 128.526V15.7037C358.622 8.49945 352.782 2.65926 345.578 2.65926Z" fill="#F4F1ED" stroke="#070707" stroke-width="2" stroke-linecap="round" stroke-linejoin="round"/>
<path d="M311.03 39.8148H237.489V96.6148H311.03V39.8148Z" fill="#F4F1ED" stroke="#070707" stroke-width="2" stroke-linecap="round" stroke-linejoin="round"/>
<path d="M342.17 96.6222H311.03V54.0148H326.6L342.17 76.5704V96.6222Z" fill="#F4F1ED" stroke="#070707" stroke-width="2" stroke-linecap="round" stroke-linejoin="round"/>
<path d="M316.667 61.9037H324.615L332.563 73.4148H316.667V61.9037Z" fill="#F4F1ED" stroke="#070707" stroke-width="2" stroke-linecap="round" stroke-linejoin="round"/>
<path d="M259.185 105.163C263.595 105.163 267.17 101.588 267.17 97.1778C267.17 92.7677 263.595 89.1926 259.185 89.1926C254.775 89.1926 251.2 92.7677 251.2 97.1778C251.2 101.588 254.775 105.163 259.185 105.163Z" fill="#EFAF00" stroke="black" stroke-width="2" stroke-linecap="round" stroke-linejoin="round"/>
<path d="M326.496 105.163C330.906 105.163 334.481 101.588 334.481 97.1778C334.481 92.7677 330.906 89.1926 326.496 89.1926C322.086 89.1926 318.511 92.7677 318.511 97.1778C318.511 101.588 322.086 105.163 326.496 105.163Z" fill="#EFAF00" stroke="black" stroke-width="2" stroke-linecap="round" stroke-linejoin="round"/>
<path d="M296.267 54.0148H272.815" stroke="#070707" stroke-width="2" stroke-linecap="round" stroke-linejoin="round"/>
<path d="M287.807 63.7185H264.356" stroke="#070707" stroke-width="2" stroke-linecap="round" stroke-linejoin="round"/>
<path d="M296.267 73.4148H272.815" stroke="#070707" stroke-width="2" stroke-linecap="round" stroke-linejoin="round"/>
</svg>
