<svg width="909" height="829" viewBox="0 0 909 829" fill="none" xmlns="http://www.w3.org/2000/svg">
<rect width="747" height="766" fill="#25B0B5"/>
<g clip-path="url(#clip0_903_2621)">
<g clip-path="url(#clip1_903_2621)">
<g clip-path="url(#clip2_903_2621)">
<g clip-path="url(#clip3_903_2621)">
<g clip-path="url(#clip4_903_2621)">
<g clip-path="url(#clip5_903_2621)">
<g clip-path="url(#clip6_903_2621)">
<g clip-path="url(#clip7_903_2621)">
<g clip-path="url(#clip8_903_2621)">
<path d="M76.9729 89.1963L79.0351 89.546L79.006 91.1486H68.4918L68.3176 90.2162C68.9953 89.6917 69.7214 89.2352 70.4959 88.8467L69.5955 86.4282H63.6704L62.6538 89.138L65.0065 89.546L64.9774 91.1486H56.6416L56.4673 90.2162C57.1256 89.6917 57.9389 89.1866 58.907 88.701L64.9193 73.724L64.4256 72.3545L69.7117 71.0433L76.9729 89.1963ZM64.6579 83.7475H68.608L66.633 78.357L64.6579 83.7475ZM93.6156 77.104L93.6446 78.6484L92.3667 79.5225L88.8522 88.0891L87.5452 91.0612C86.732 91.2943 85.6573 91.4108 84.3212 91.4108C83.5274 91.4108 82.8593 91.3623 82.3172 91.2651L78.1057 80.0178L76.2177 78.7358V77.104H83.3337L85.483 84.0389L85.8897 85.962H86.2092C86.5964 83.1259 86.8966 80.1732 87.1095 77.104H93.6156ZM99.105 75.3266C97.5366 74.6079 96.249 73.6172 95.2421 72.3545C96.0747 70.7422 97.1494 69.431 98.4661 68.4209C99.9377 69.2562 101.158 70.3829 102.126 71.8009C101.39 73.2384 100.383 74.4136 99.105 75.3266ZM101.719 78.0365V88.5844C102.552 88.9341 103.249 89.3129 103.81 89.7208L103.781 91.1486H93.7027L93.6737 90.1287C94.2933 89.7402 95.0291 89.3809 95.8811 89.0506V79.6099L93.7027 79.0563L93.6446 77.6285C95.5035 76.9681 97.6238 76.5893 100.005 76.4921L101.719 78.0365ZM119.518 79.0271L115.887 83.4853C114.454 82.242 113.292 81.533 112.402 81.3582V88.2348C113.757 88.7204 114.832 89.2157 115.626 89.7208L115.597 91.1486H104.414L104.385 90.1287C105.044 89.7208 105.77 89.3712 106.564 89.0798V79.6099L104.385 79.0563L104.327 77.6285C106.186 76.9681 108.306 76.5893 110.688 76.4921L112.402 79.0563L114.435 76.667C114.803 76.5504 115.209 76.4921 115.655 76.4921C116.526 76.4921 117.33 76.7194 118.065 77.174C118.801 77.6324 119.285 78.2501 119.518 79.0271ZM135.289 87.9434L135.376 89.2546L131.223 91.6439C129.906 91.6439 128.822 90.9252 127.97 89.4877L124.949 91.4982L123.845 91.5856C122.548 91.5856 121.464 91.201 120.592 90.4318C119.721 89.6664 119.285 88.769 119.285 87.7394C119.285 87.079 119.494 86.4243 119.913 85.7755C120.327 85.1228 120.941 84.5925 121.754 84.1846L127.215 84.068V81.8827C127.215 80.4452 126.779 79.4934 125.908 79.0271C125.482 79.066 125.123 79.1631 124.833 79.3185L123.991 82.582L120.68 82.6111C120.35 81.4845 120.186 80.3966 120.186 79.3477L120.302 77.9199C121.541 77.4731 122.941 77.1137 124.502 76.8418C126.059 76.5698 127.311 76.4339 128.26 76.4339C130.138 76.4339 131.62 77.1526 132.704 78.5901C132.936 78.9397 133.053 79.8333 133.053 81.2708V87.0984C133.053 87.7006 133.285 88.0017 133.75 88.0017L134.708 87.9725L135.289 87.9434ZM124.978 87.3024C124.978 87.788 125.123 88.1959 125.414 88.5261L127.215 88.1474V85.962C125.724 85.962 124.978 86.4088 124.978 87.3024Z" fill="white"/>
</g>
</g>
</g>
</g>
</g>
</g>
</g>
<path d="M111.437 40C133.476 40 151.342 57.9232 151.342 80.0324C151.342 102.142 133.476 120.065 111.437 120.065C94.4409 120.065 79.9262 109.404 74.1743 94.3851H75.2949C80.9929 108.814 95.0272 119.018 111.437 119.018C132.899 119.018 150.298 101.563 150.298 80.0324C150.298 58.5014 132.899 41.0471 111.437 41.0471C95.0275 41.0471 80.9929 51.2512 75.2949 65.6797H74.1743C79.9262 50.6604 94.4406 40 111.437 40V40Z" fill="white"/>
</g>
</g>
<g clip-path="url(#clip9_903_2621)">
<path d="M323.306 322.505H200.024C193.551 322.505 188.304 327.75 188.304 334.219V492.655C188.304 499.124 193.551 504.369 200.024 504.369H323.306C329.779 504.369 335.026 499.124 335.026 492.655V334.219C335.026 327.75 329.779 322.505 323.306 322.505Z" fill="#EFAF00" stroke="black" stroke-width="2" stroke-linecap="round" stroke-linejoin="round"/>
<path d="M289.184 322.505H274.924V504.536H289.184V322.505Z" fill="#1C0E0C"/>
<path d="M723.423 589.342H846.704C853.177 589.342 858.425 584.097 858.425 577.628V457.685C858.425 451.216 853.177 445.972 846.704 445.972H723.423C716.95 445.972 711.702 451.216 711.702 457.685V577.628C711.702 584.097 716.95 589.342 723.423 589.342Z" fill="#C5DCDD" stroke="black" stroke-width="2" stroke-linecap="round" stroke-linejoin="round"/>
<path d="M757.544 589.474H771.805V445.972H757.544V589.474Z" fill="#1C0E0C"/>
<path d="M841.634 726.749C855.562 735.062 909.773 577.66 907.201 567.974C907.211 567.974 817.033 712.065 841.634 726.749Z" fill="#F4F1ED" stroke="#070707" stroke-width="2" stroke-linecap="round" stroke-linejoin="round"/>
<path d="M830.799 772.06C830.799 772.06 846.217 668.93 906.481 570.693" stroke="#070707" stroke-width="2" stroke-linecap="round" stroke-linejoin="round"/>
<path d="M888.969 690.979C888.969 690.979 860.005 766.777 843.46 758.506C827.219 750.387 888.969 690.979 888.969 690.979Z" fill="#F4F1ED" stroke="#070707" stroke-width="2" stroke-linecap="round" stroke-linejoin="round"/>
<path d="M834.793 772.06C834.793 772.06 870.734 715.459 888.975 691.24" stroke="#070707" stroke-width="2" stroke-linecap="round" stroke-linejoin="round"/>
<path d="M847.008 514.289C847.008 514.289 851.856 685.321 830.799 685.321C806.117 685.321 847.008 514.289 847.008 514.289Z" fill="#F4F1ED" stroke="#070707" stroke-width="2" stroke-linecap="round" stroke-linejoin="round"/>
<path d="M826.896 772.06C826.896 772.06 828.983 620.132 847.008 515.455" stroke="#070707" stroke-width="2" stroke-linecap="round" stroke-linejoin="round"/>
<path d="M775.718 607.785C775.718 607.785 788.373 726.653 809.439 722.994C830.799 719.283 775.718 607.785 775.718 607.785Z" fill="#F4F1ED" stroke="#070707" stroke-width="2" stroke-linecap="round" stroke-linejoin="round"/>
<path d="M776.345 609.012L823.861 772.69" stroke="#070707" stroke-width="2" stroke-linecap="round" stroke-linejoin="round"/>
<path d="M828.983 827.208C821.28 827.208 813.894 824.149 808.447 818.705C803.001 813.262 799.941 805.879 799.941 798.181V790.514C799.941 788.727 800.337 786.962 801.101 785.347C801.864 783.731 802.975 782.304 804.356 781.168L812.069 774.818C814.239 773.035 816.961 772.06 819.77 772.06H838.189C840.998 772.061 843.72 773.036 845.89 774.818L853.604 781.168C854.984 782.304 856.095 783.731 856.859 785.347C857.622 786.962 858.018 788.727 858.018 790.514V798.181C858.018 805.878 854.959 813.26 849.514 818.703C844.069 824.146 836.684 827.206 828.983 827.208V827.208Z" fill="#F4F1ED" stroke="#070707" stroke-width="2" stroke-linecap="round" stroke-linejoin="round"/>
<path d="M834.082 624.747L846.245 613.527" stroke="#070707" stroke-width="2" stroke-linecap="round" stroke-linejoin="round"/>
<path d="M833.808 630.489L845.971 619.266" stroke="#070707" stroke-width="2" stroke-linecap="round" stroke-linejoin="round"/>
<path d="M833.808 576.523L837.543 586.665" stroke="#070707" stroke-width="2" stroke-linecap="round" stroke-linejoin="round"/>
<path d="M858.454 671.666H874.02" stroke="#070707" stroke-width="2" stroke-linecap="round" stroke-linejoin="round"/>
<path d="M859.55 667.839H875.116" stroke="#070707" stroke-width="2" stroke-linecap="round" stroke-linejoin="round"/>
<path d="M883.417 612.565H895.859" stroke="#070707" stroke-width="2" stroke-linecap="round" stroke-linejoin="round"/>
<path d="M789.717 688.925L801.541 695.809" stroke="#070707" stroke-width="2" stroke-linecap="round" stroke-linejoin="round"/>
<path d="M790.81 694.121L802.911 701.276" stroke="#070707" stroke-width="2" stroke-linecap="round" stroke-linejoin="round"/>
<path d="M852.163 745.135H862.846" stroke="#070707" stroke-width="2" stroke-linecap="round" stroke-linejoin="round"/>
<path d="M744.983 286.65H300.721C294.096 286.65 288.726 292.018 288.726 298.639V607.973C288.726 614.594 294.096 619.961 300.721 619.961H744.983C751.608 619.961 756.979 614.594 756.979 607.973V298.639C756.979 292.018 751.608 286.65 744.983 286.65Z" fill="#F4F1ED" stroke="#070707" stroke-width="2" stroke-linecap="round" stroke-linejoin="round"/>
<path d="M288.726 314.389H756.979" stroke="#070707" stroke-width="2" stroke-linecap="round" stroke-linejoin="round"/>
<path d="M358.426 298.073H356.054C354.182 298.073 352.664 299.59 352.664 301.461V303.831C352.664 305.701 354.182 307.218 356.054 307.218H358.426C360.298 307.218 361.816 305.701 361.816 303.831V301.461C361.816 299.59 360.298 298.073 358.426 298.073Z" fill="#FFEFF0"/>
<path d="M342.814 298.073H340.443C338.57 298.073 337.053 299.59 337.053 301.461V303.831C337.053 305.701 338.57 307.218 340.443 307.218H342.814C344.687 307.218 346.204 305.701 346.204 303.831V301.461C346.204 299.59 344.687 298.073 342.814 298.073Z" fill="#FFEFF0"/>
<path d="M327.2 298.073H324.828C322.956 298.073 321.438 299.59 321.438 301.461V303.831C321.438 305.701 322.956 307.218 324.828 307.218H327.2C329.072 307.218 330.59 305.701 330.59 303.831V301.461C330.59 299.59 329.072 298.073 327.2 298.073Z" fill="#FFEFF0"/>
<path d="M356.539 296.397H354.167C352.295 296.397 350.777 297.914 350.777 299.784V302.154C350.777 304.025 352.295 305.541 354.167 305.541H356.539C358.411 305.541 359.928 304.025 359.928 302.154V299.784C359.928 297.914 358.411 296.397 356.539 296.397Z" fill="#C5DCDD" stroke="black" stroke-width="2" stroke-linecap="round" stroke-linejoin="round"/>
<path d="M340.924 296.397H338.552C336.68 296.397 335.162 297.914 335.162 299.784V302.154C335.162 304.025 336.68 305.541 338.552 305.541H340.924C342.796 305.541 344.314 304.025 344.314 302.154V299.784C344.314 297.914 342.796 296.397 340.924 296.397Z" fill="#EFAF00" stroke="black" stroke-width="2" stroke-linecap="round" stroke-linejoin="round"/>
<path d="M325.313 296.397H322.941C321.068 296.397 319.551 297.914 319.551 299.784V302.154C319.551 304.025 321.068 305.541 322.941 305.541H325.313C327.185 305.541 328.702 304.025 328.702 302.154V299.784C328.702 297.914 327.185 296.397 325.313 296.397Z" fill="#F46F40" stroke="black" stroke-width="2" stroke-linecap="round" stroke-linejoin="round"/>
<path d="M673.325 522.157H377.918C374.775 522.157 372.228 524.703 372.228 527.844V577.528C372.228 580.669 374.775 583.215 377.918 583.215H673.325C676.468 583.215 679.016 580.669 679.016 577.528V527.844C679.016 524.703 676.468 522.157 673.325 522.157Z" stroke="#070707" stroke-width="2" stroke-linecap="round" stroke-linejoin="round"/>
<path d="M626.039 539.125H590.628V566.46H626.039V539.125Z" fill="#EFAF00" stroke="black" stroke-width="2" stroke-linecap="round" stroke-linejoin="round"/>
<path d="M641.033 566.46H626.039V545.956H633.536L641.033 556.814V566.46Z" fill="#F4F1ED" stroke="#070707" stroke-width="2" stroke-linecap="round" stroke-linejoin="round"/>
<path d="M628.753 549.754H632.579L636.408 555.291H628.753V549.754Z" fill="#F4F1ED" stroke="#070707" stroke-width="2" stroke-linecap="round" stroke-linejoin="round"/>
<path d="M601.072 570.57C603.196 570.57 604.918 568.85 604.918 566.728C604.918 564.606 603.196 562.885 601.072 562.885C598.948 562.885 597.227 564.606 597.227 566.728C597.227 568.85 598.948 570.57 601.072 570.57Z" fill="#F4F1ED" stroke="#070707" stroke-width="2" stroke-linecap="round" stroke-linejoin="round"/>
<path d="M633.484 570.57C635.608 570.57 637.33 568.85 637.33 566.728C637.33 564.606 635.608 562.885 633.484 562.885C631.36 562.885 629.639 564.606 629.639 566.728C629.639 568.85 631.36 570.57 633.484 570.57Z" fill="#F4F1ED" stroke="#070707" stroke-width="2" stroke-linecap="round" stroke-linejoin="round"/>
<path d="M618.929 545.956H607.635" stroke="#070707" stroke-width="2" stroke-linecap="round" stroke-linejoin="round"/>
<path d="M614.854 550.626H603.563" stroke="#070707" stroke-width="2" stroke-linecap="round" stroke-linejoin="round"/>
<path d="M618.929 555.292H607.635" stroke="#070707" stroke-width="2" stroke-linecap="round" stroke-linejoin="round"/>
<path d="M557.854 570.52C566.638 570.52 573.76 563.403 573.76 554.624C573.76 545.845 566.638 538.728 557.854 538.728C549.07 538.728 541.949 545.845 541.949 554.624C541.949 563.403 549.07 570.52 557.854 570.52Z" fill="#F4F1ED" stroke="#070707" stroke-width="2" stroke-linecap="round" stroke-linejoin="round"/>
<path d="M557.922 538.776V570.568" stroke="#070707" stroke-width="2" stroke-linecap="round" stroke-linejoin="round"/>
<path d="M560.733 538.867C560.733 538.867 571.336 551.162 560.733 570.465Z" fill="#F4F1ED"/>
<path d="M560.733 538.867C560.733 538.867 571.336 551.162 560.733 570.465" stroke="#070707" stroke-width="2" stroke-linecap="round" stroke-linejoin="round"/>
<path d="M555.107 538.867C555.107 538.867 544.505 551.162 555.107 570.465" stroke="#070707" stroke-width="2" stroke-linecap="round" stroke-linejoin="round"/>
<path d="M542.017 554.672H573.824" stroke="#070707" stroke-width="2" stroke-linecap="round" stroke-linejoin="round"/>
<path d="M548.014 567.109C548.014 567.109 557.638 561.329 567.613 567.109" stroke="#070707" stroke-width="2" stroke-linecap="round" stroke-linejoin="round"/>
<path d="M548.014 542.309C548.014 542.309 557.638 548.089 567.613 542.309" stroke="#070707" stroke-width="2" stroke-linecap="round" stroke-linejoin="round"/>
<path d="M511.786 562.436C518.225 562.436 523.445 557.476 523.445 551.358C523.445 545.241 518.225 540.281 511.786 540.281C505.346 540.281 500.126 545.241 500.126 551.358C500.126 557.476 505.346 562.436 511.786 562.436Z" fill="#FFEFF0"/>
<path d="M509.585 561.554C516.214 561.554 521.587 556.45 521.587 550.154C521.587 543.858 516.214 538.754 509.585 538.754C502.957 538.754 497.583 543.858 497.583 550.154C497.583 556.45 502.957 561.554 509.585 561.554Z" fill="#EFAF00" stroke="black" stroke-width="2" stroke-linecap="round" stroke-linejoin="round"/>
<path d="M515.586 544.454C516.37 545.182 516.996 546.064 517.424 547.045C517.852 548.026 518.072 549.084 518.072 550.154C518.072 551.224 517.852 552.282 517.424 553.263C516.996 554.244 516.37 555.126 515.586 555.854" stroke="#070707" stroke-width="2" stroke-linecap="round" stroke-linejoin="round"/>
<path d="M518.058 562.21L525.491 570.022C525.81 570.35 526.241 570.545 526.698 570.567C527.155 570.589 527.604 570.437 527.953 570.142V570.142C528.121 570 528.258 569.825 528.356 569.629C528.455 569.432 528.511 569.217 528.523 568.997C528.536 568.778 528.503 568.558 528.427 568.352C528.351 568.145 528.234 567.957 528.082 567.797L520.65 559.985C520.331 559.657 519.899 559.462 519.442 559.44C518.985 559.418 518.537 559.57 518.188 559.865V559.865C518.02 560.007 517.882 560.182 517.784 560.379C517.686 560.576 517.629 560.79 517.617 561.01C517.605 561.229 517.638 561.449 517.714 561.656C517.79 561.862 517.907 562.051 518.058 562.21V562.21Z" fill="#EFAF00" stroke="black" stroke-width="2" stroke-linecap="round" stroke-linejoin="round"/>
<path d="M479.148 543.498H456.624C455.439 543.498 454.479 544.458 454.479 545.642V568.152C454.479 569.337 455.439 570.297 456.624 570.297H479.148C480.333 570.297 481.293 569.337 481.293 568.152V545.642C481.293 544.458 480.333 543.498 479.148 543.498Z" fill="#C5DCDD" stroke="black" stroke-width="2" stroke-linecap="round" stroke-linejoin="round"/>
<path d="M472.914 543.498H452.401C451.216 543.498 450.255 544.458 450.255 545.642V568.152C450.255 569.337 451.216 570.297 452.401 570.297H472.914C474.099 570.297 475.06 569.337 475.06 568.152V545.642C475.06 544.458 474.099 543.498 472.914 543.498Z" fill="#C5DCDD" stroke="black" stroke-width="2" stroke-linecap="round" stroke-linejoin="round"/>
<path d="M463.062 571.75V541.812" stroke="#070707" stroke-width="2" stroke-linecap="round" stroke-linejoin="round"/>
<path d="M448.937 556.833H482.479" stroke="#070707" stroke-width="2" stroke-linecap="round" stroke-linejoin="round"/>
<path d="M467.081 534.898H469.052C470.118 534.898 471.139 535.32 471.893 536.073C472.646 536.826 473.069 537.847 473.069 538.911V539.479C473.069 540.544 472.646 541.565 471.893 542.317C471.139 543.07 470.118 543.493 469.052 543.493H463.064V538.908C463.064 537.843 463.488 536.823 464.241 536.07C464.994 535.317 466.016 534.894 467.081 534.894V534.898Z" stroke="#070707" stroke-width="2" stroke-linecap="round" stroke-linejoin="round"/>
<path d="M463.016 543.498H457.545C456.704 543.498 455.896 543.164 455.301 542.569C454.706 541.974 454.372 541.168 454.372 540.327V539.878C454.372 539.037 454.706 538.231 455.301 537.636C455.896 537.041 456.704 536.707 457.545 536.707H459.843C460.684 536.707 461.492 537.041 462.087 537.636C462.682 538.231 463.016 539.037 463.016 539.878V543.498V543.498Z" stroke="#070707" stroke-width="2" stroke-linecap="round" stroke-linejoin="round"/>
<path d="M468.064 548.984L463.013 543.498L459.927 546.585" stroke="#070707" stroke-width="2" stroke-linecap="round" stroke-linejoin="round"/>
<path d="M416.418 534.646H416.916C417.848 534.646 418.741 535.016 419.4 535.674C420.059 536.332 420.429 537.225 420.429 538.156V542.947H412.906V538.156C412.906 537.225 413.276 536.332 413.935 535.674C414.593 535.016 415.487 534.646 416.418 534.646V534.646Z" stroke="#070707" stroke-width="2" stroke-linecap="round" stroke-linejoin="round"/>
<path d="M413.762 534.646H414.26C415.191 534.646 416.085 535.016 416.744 535.674C417.402 536.332 417.772 537.225 417.772 538.156V542.947H410.25V538.156C410.25 537.225 410.62 536.332 411.278 535.674C411.937 535.016 412.831 534.646 413.762 534.646V534.646Z" stroke="#070707" stroke-width="2" stroke-linecap="round" stroke-linejoin="round"/>
<path d="M428.204 570.568H420.08L423.466 542.936H424.817L428.204 570.568Z" fill="#1C0E0C"/>
<path d="M423.466 542.936L420.08 570.568H400.788L404.171 542.936H423.466Z" fill="#EFAF00" stroke="black" stroke-width="2" stroke-linecap="round" stroke-linejoin="round"/>
<path d="M579.731 409.648H514.487C511.344 409.648 508.796 412.195 508.796 415.336V480.541C508.796 483.682 511.344 486.228 514.487 486.228H579.731C582.874 486.228 585.422 483.682 585.422 480.541V415.336C585.422 412.195 582.874 409.648 579.731 409.648Z" fill="#1C0E0C"/>
<path d="M576.545 406.425H511.301C508.158 406.425 505.61 408.972 505.61 412.113V477.318C505.61 480.459 508.158 483.005 511.301 483.005H576.545C579.688 483.005 582.236 480.459 582.236 477.318V412.113C582.236 408.972 579.688 406.425 576.545 406.425Z" fill="#F4F1ED" stroke="#070707" stroke-width="2" stroke-linecap="round" stroke-linejoin="round"/>
<path d="M557.492 474.663H535.686C533.624 474.664 531.59 474.201 529.733 473.307C527.876 472.412 526.245 471.111 524.962 469.499C523.679 467.887 522.777 466.006 522.323 463.997C521.869 461.987 521.874 459.902 522.339 457.895L526.734 442.354C526.887 441.697 527.257 441.111 527.785 440.691C528.313 440.271 528.968 440.043 529.643 440.042H563.515C564.19 440.042 564.845 440.271 565.373 440.691C565.901 441.111 566.272 441.697 566.424 442.354L570.822 457.895C571.285 459.9 571.29 461.984 570.837 463.992C570.383 465.999 569.482 467.878 568.201 469.49C566.92 471.101 565.292 472.403 563.437 473.299C561.583 474.194 559.551 474.661 557.492 474.663Z" fill="#EFAF00"/>
<path d="M554.858 472.296H533.052C530.991 472.296 528.957 471.831 527.101 470.936C525.245 470.041 523.615 468.739 522.332 467.127C521.05 465.515 520.148 463.634 519.694 461.625C519.24 459.616 519.245 457.531 519.709 455.524L524.107 439.987C524.259 439.329 524.628 438.742 525.157 438.322C525.685 437.901 526.34 437.672 527.016 437.671H560.891C561.567 437.672 562.222 437.902 562.75 438.322C563.278 438.743 563.648 439.329 563.8 439.987L568.195 455.524C568.659 457.531 568.665 459.616 568.212 461.624C567.758 463.633 566.857 465.513 565.575 467.126C564.293 468.738 562.663 470.04 560.808 470.935C558.952 471.83 556.919 472.295 554.858 472.296V472.296Z" stroke="#070707" stroke-width="2" stroke-linecap="round" stroke-linejoin="round"/>
<path d="M557.156 434.92C557.157 435.841 557.086 436.761 556.946 437.671H530.964C530.824 436.761 530.754 435.841 530.754 434.92C530.754 426.41 536.662 419.515 543.952 419.515C551.242 419.515 557.156 426.41 557.156 434.92Z" stroke="#070707" stroke-width="2" stroke-linecap="round" stroke-linejoin="round"/>
<path d="M563.072 438.614C562.626 448.755 554.057 456.845 543.952 456.845C534.118 456.845 525.283 448.771 524.837 438.618C525.116 438.319 525.453 438.081 525.828 437.918C526.203 437.755 526.607 437.671 527.015 437.671H560.888C561.297 437.672 561.702 437.755 562.078 437.918C562.453 438.08 562.792 438.317 563.072 438.614Z" stroke="#070707" stroke-width="2" stroke-linecap="round" stroke-linejoin="round"/>
<path d="M545.27 453.871H542.637V460.067H545.27V453.871Z" stroke="#070707" stroke-width="2" stroke-linecap="round" stroke-linejoin="round"/>
<path d="M567.051 415.83C571.728 415.83 575.521 412.04 575.521 407.365C575.521 402.69 571.728 398.9 567.051 398.9C562.373 398.9 558.581 402.69 558.581 407.365C558.581 412.04 562.373 415.83 567.051 415.83Z" fill="#C5DCDD" stroke="black" stroke-width="2" stroke-linecap="round" stroke-linejoin="round"/>
<path d="M563.932 407.119L566.711 411.042L570.172 403.687" stroke="#070707" stroke-width="2" stroke-linecap="round" stroke-linejoin="round"/>
<path d="M675.118 358.579H510.296C507.708 358.579 505.61 360.676 505.61 363.262V387.652C505.61 390.238 507.708 392.335 510.296 392.335H675.118C677.706 392.335 679.804 390.238 679.804 387.652V363.262C679.804 360.676 677.706 358.579 675.118 358.579Z" stroke="#070707" stroke-width="2" stroke-linecap="round" stroke-linejoin="round"/>
<path d="M556.804 386.618H532.836C532.836 386.618 526.279 376.096 524.04 376.096C522.747 376.096 522.217 386.622 522.217 386.622H520.724C520.724 386.622 517.234 365.126 521.102 363.895C523.623 363.094 530.448 365.226 532.322 373.665C533.905 380.77 543.009 382.045 544.02 377.356C544.02 377.353 556.377 380.992 556.804 386.618Z" fill="#F4F1ED" stroke="#070707" stroke-width="2" stroke-linecap="round" stroke-linejoin="round"/>
<path d="M618.289 381.458C618.247 381.958 617.346 384.342 617.346 384.342L571.271 382.782V380.198C571.322 376.861 572.086 373.573 573.51 370.555C574.709 368.058 576.367 368.681 576.367 368.681C576.367 368.681 580.872 373.083 585.926 373.083C586.367 373.079 586.799 372.96 587.18 372.738C587.56 372.516 587.877 372.199 588.097 371.817C588.395 371.352 588.626 370.848 588.786 370.319C588.998 369.63 589.147 368.923 589.228 368.207C589.267 367.904 589.378 367.616 589.552 367.365C589.725 367.115 589.957 366.91 590.227 366.768C590.496 366.626 590.796 366.55 591.101 366.548C591.406 366.546 591.707 366.618 591.978 366.757C593.963 367.777 596.37 370.057 602.82 373.539C603.143 373.713 603.466 373.894 603.822 374.075C611.668 378.205 618.205 376.671 618.289 381.458Z" fill="#F4F1ED" stroke="#070707" stroke-width="2" stroke-linecap="round" stroke-linejoin="round"/>
<path d="M613.109 386.617C614.444 386.617 616.069 386.013 616.945 385.038C617.488 384.402 617.878 383.65 618.085 382.841C618.293 382.031 618.313 381.185 618.144 380.366H618.108C617.922 381.34 617.408 382.22 616.651 382.861C615.895 383.502 614.941 383.865 613.949 383.889L574.005 382.717C573.392 382.697 572.799 382.489 572.31 382.119C571.82 381.75 571.457 381.238 571.271 380.653V383.333C571.271 385.148 572.589 386.617 574.212 386.617H613.109Z" fill="#EFAF00" stroke="black" stroke-width="2" stroke-linecap="round" stroke-linejoin="round"/>
<path d="M604.575 374.48C594.596 371.07 589.603 369.527 588.786 370.347C588.998 369.658 589.147 368.951 589.228 368.235C589.267 367.933 589.378 367.645 589.552 367.394C589.725 367.144 589.957 366.939 590.226 366.797C590.496 366.655 590.796 366.579 591.101 366.577C591.406 366.575 591.707 366.647 591.978 366.786C593.962 367.79 597.281 370.819 604.575 374.48Z" fill="#EFAF00" stroke="black" stroke-width="2" stroke-linecap="round" stroke-linejoin="round"/>
<path d="M593.685 369.979L595.494 367.228C595.6 367.067 595.737 366.929 595.898 366.823C596.058 366.717 596.239 366.644 596.428 366.61C596.618 366.576 596.812 366.58 597 366.623C597.188 366.666 597.365 366.747 597.52 366.86V366.86C597.798 367.063 597.993 367.361 598.068 367.697C598.143 368.033 598.093 368.385 597.928 368.687L597.685 369.13" stroke="#070707" stroke-width="2" stroke-linecap="round" stroke-linejoin="round"/>
<path d="M598.338 371.404L599.663 369.424C599.759 369.286 599.881 369.169 600.024 369.079C600.166 368.99 600.325 368.93 600.491 368.904C600.657 368.878 600.827 368.885 600.99 368.927C601.153 368.968 601.306 369.041 601.44 369.143C601.682 369.327 601.848 369.592 601.908 369.889C601.967 370.187 601.916 370.496 601.763 370.758L601.285 371.623" stroke="#070707" stroke-width="2" stroke-linecap="round" stroke-linejoin="round"/>
<path d="M605.018 373.512C605.548 372.792 605.418 371.966 604.888 371.575C604.746 371.469 604.583 371.393 604.41 371.352C604.237 371.31 604.057 371.305 603.882 371.335C603.707 371.365 603.539 371.43 603.39 371.527C603.241 371.624 603.113 371.75 603.014 371.898L602.203 373.225" stroke="#070707" stroke-width="2" stroke-linecap="round" stroke-linejoin="round"/>
<path d="M664.538 365.82C668.54 365.82 671.783 362.578 671.783 358.579C671.783 354.58 668.54 351.339 664.538 351.339C660.537 351.339 657.293 354.58 657.293 358.579C657.293 362.578 660.537 365.82 664.538 365.82Z" fill="#F46F40" stroke="black" stroke-width="2" stroke-linecap="round" stroke-linejoin="round"/>
<path d="M662.157 361.049L666.92 356.109" stroke="#070707" stroke-width="2" stroke-linecap="round" stroke-linejoin="round"/>
<path d="M666.92 361.049L662.157 356.109" stroke="#070707" stroke-width="2" stroke-linecap="round" stroke-linejoin="round"/>
<path d="M632.153 375.073C632.153 375.073 626.982 386.618 634.492 386.618H669.353C669.353 386.618 670.756 380.963 661.701 379.513C660.441 379.31 656.854 378.622 656.854 378.622C656.854 378.622 657.972 383.143 650.003 382.785C642.034 382.426 638.431 375.641 632.153 375.073Z" fill="#F4F1ED" stroke="#070707" stroke-width="2" stroke-linecap="round" stroke-linejoin="round"/>
<path d="M494.194 363.737H383.014C379.872 363.737 377.324 366.283 377.324 369.424V480.537C377.324 483.678 379.872 486.225 383.014 486.225H494.194C497.337 486.225 499.885 483.678 499.885 480.537V369.424C499.885 366.283 497.337 363.737 494.194 363.737Z" fill="#1C0E0C"/>
<path d="M489.098 358.579H377.918C374.775 358.579 372.228 361.126 372.228 364.267V475.38C372.228 478.521 374.775 481.067 377.918 481.067H489.098C492.241 481.067 494.788 478.521 494.788 475.38V364.267C494.788 361.126 492.241 358.579 489.098 358.579Z" fill="#EFAF00" stroke="black" stroke-width="2" stroke-linecap="round" stroke-linejoin="round"/>
<path d="M479.099 408.069L462.829 421.843V458.747H408.656V421.856L392.389 408.069L404.872 392.567C408.656 389.276 414.418 388.76 418.603 388.76H454.414C462.816 388.76 464.945 390.339 467.127 392.057L479.099 408.069Z" fill="#1C0E0C"/>
<path d="M477.745 405.566L461.181 419.586V457.159H406.006V419.586L389.445 405.566L402.151 389.741C406.006 386.389 411.875 385.866 416.134 385.866H452.595C461.148 385.866 463.314 387.481 465.521 389.221L477.745 405.566Z" fill="#F4F1ED" stroke="#070707" stroke-width="2" stroke-linecap="round" stroke-linejoin="round"/>
<path d="M406.013 419.586V406.299" stroke="#070707" stroke-width="2" stroke-linecap="round" stroke-linejoin="round"/>
<path d="M461.155 419.712V406.425" stroke="#070707" stroke-width="2" stroke-linecap="round" stroke-linejoin="round"/>
<path d="M433.59 398.113V457.149" stroke="#070707" stroke-width="2" stroke-linecap="round" stroke-linejoin="round"/>
<path d="M450.72 385.879H438.302C438.185 385.878 438.071 385.914 437.976 385.981C437.881 386.048 437.81 386.143 437.772 386.254L433.59 398.112L429.189 386.35C429.137 386.212 429.044 386.092 428.922 386.008C428.8 385.924 428.655 385.879 428.507 385.879H416.266L422.215 380.818C423.546 379.685 425.237 379.062 426.985 379.061H440.001C441.751 379.062 443.443 379.684 444.774 380.818L450.72 385.879Z" fill="#F4F1ED" stroke="#070707" stroke-width="2" stroke-linecap="round" stroke-linejoin="round"/>
<path d="M424.775 380.854L429.011 385.879L424.164 392.793L416.26 385.879L422.451 380.657C422.617 380.517 422.808 380.411 423.014 380.345C423.221 380.279 423.438 380.254 423.654 380.272C423.87 380.291 424.08 380.352 424.272 380.451C424.465 380.551 424.635 380.688 424.775 380.854Z" fill="#F4F1ED" stroke="#070707" stroke-width="2" stroke-linecap="round" stroke-linejoin="round"/>
<path d="M442.215 380.854L437.976 385.879L442.823 392.793L450.727 385.879L444.535 380.657C444.37 380.517 444.179 380.412 443.973 380.346C443.767 380.28 443.55 380.256 443.334 380.274C443.119 380.293 442.909 380.353 442.717 380.453C442.525 380.552 442.355 380.688 442.215 380.854V380.854Z" fill="#F4F1ED" stroke="#070707" stroke-width="2" stroke-linecap="round" stroke-linejoin="round"/>
<path d="M441.876 407.365H452.863V417.781C452.863 418.323 452.648 418.843 452.264 419.226C451.88 419.61 451.36 419.825 450.818 419.825H443.921C443.379 419.825 442.859 419.61 442.475 419.226C442.091 418.843 441.876 418.323 441.876 417.781V407.365V407.365Z" fill="#F4F1ED" stroke="#070707" stroke-width="2" stroke-linecap="round" stroke-linejoin="round"/>
<path d="M430.217 403.776C430.954 403.776 431.552 403.179 431.552 402.443C431.552 401.706 430.954 401.109 430.217 401.109C429.48 401.109 428.882 401.706 428.882 402.443C428.882 403.179 429.48 403.776 430.217 403.776Z" fill="#1C0E0C"/>
<path d="M430.217 413.985C430.954 413.985 431.552 413.388 431.552 412.652C431.552 411.915 430.954 411.318 430.217 411.318C429.48 411.318 428.882 411.915 428.882 412.652C428.882 413.388 429.48 413.985 430.217 413.985Z" fill="#1C0E0C"/>
<path d="M430.217 424.194C430.954 424.194 431.552 423.597 431.552 422.86C431.552 422.124 430.954 421.527 430.217 421.527C429.48 421.527 428.882 422.124 428.882 422.86C428.882 423.597 429.48 424.194 430.217 424.194Z" fill="#1C0E0C"/>
<path d="M430.217 434.403C430.954 434.403 431.552 433.806 431.552 433.069C431.552 432.333 430.954 431.736 430.217 431.736C429.48 431.736 428.882 432.333 428.882 433.069C428.882 433.806 429.48 434.403 430.217 434.403Z" fill="#1C0E0C"/>
<path d="M430.217 444.611C430.954 444.611 431.552 444.014 431.552 443.278C431.552 442.541 430.954 441.944 430.217 441.944C429.48 441.944 428.882 442.541 428.882 443.278C428.882 444.014 429.48 444.611 430.217 444.611Z" fill="#1C0E0C"/>
<path d="M472.582 374.378C479.917 374.378 485.863 368.436 485.863 361.105C485.863 353.774 479.917 347.831 472.582 347.831C465.247 347.831 459.3 353.774 459.3 361.105C459.3 368.436 465.247 374.378 472.582 374.378Z" fill="#F4F1ED" stroke="#070707" stroke-width="2" stroke-linecap="round" stroke-linejoin="round"/>
<path d="M469.159 355.169C467.456 355.169 466.309 356.486 466.309 358.443C466.309 360.526 467.356 361.772 469.108 361.772C470.859 361.772 471.932 360.481 471.932 358.375C471.929 356.396 470.872 355.169 469.159 355.169ZM469.137 360.532C467.967 360.532 467.792 359.212 467.792 358.424C467.792 357.132 468.271 356.409 469.137 356.409C470.239 356.409 470.468 357.487 470.468 358.395C470.468 359.815 470.019 360.532 469.137 360.532V360.532Z" fill="#1C0E0C"/>
<path d="M476.411 359.874C474.737 359.874 473.564 361.221 473.564 363.145C473.564 365.199 474.637 366.474 476.362 366.474C478.088 366.474 479.187 365.183 479.187 363.077C479.187 361.101 478.124 359.874 476.411 359.874ZM476.392 365.234C475.222 365.234 475.047 363.917 475.047 363.129C475.047 361.837 475.535 361.111 476.392 361.111C477.49 361.111 477.72 362.193 477.72 363.097C477.72 364.469 477.235 365.234 476.392 365.234Z" fill="#1C0E0C"/>
<path d="M477.206 355.317L469.786 366.356H468.306L475.719 355.317H477.206Z" fill="#1C0E0C"/>
<path d="M675.6 409.648H610.356C607.213 409.648 604.665 412.195 604.665 415.336V480.541C604.665 483.682 607.213 486.228 610.356 486.228H675.6C678.742 486.228 681.29 483.682 681.29 480.541V415.336C681.29 412.195 678.742 409.648 675.6 409.648Z" fill="#1C0E0C"/>
<path d="M672.413 406.425H607.17C604.027 406.425 601.479 408.972 601.479 412.113V477.318C601.479 480.459 604.027 483.005 607.17 483.005H672.413C675.556 483.005 678.104 480.459 678.104 477.318V412.113C678.104 408.972 675.556 406.425 672.413 406.425Z" fill="#C5DCDD" stroke="black" stroke-width="2" stroke-linecap="round" stroke-linejoin="round"/>
<path d="M660.819 435.873H625.88C624.695 435.873 623.734 436.833 623.734 438.017V468.398C623.734 469.582 624.695 470.542 625.88 470.542H660.819C662.004 470.542 662.965 469.582 662.965 468.398V438.017C662.965 436.833 662.004 435.873 660.819 435.873Z" fill="white"/>
<path d="M663.007 436.664V466.941C663.007 467.414 662.914 467.882 662.733 468.318C662.553 468.755 662.287 469.152 661.953 469.486C661.619 469.82 661.222 470.085 660.785 470.266C660.348 470.446 659.88 470.539 659.407 470.539H650.682C651.636 470.539 652.552 470.16 653.227 469.485C653.902 468.81 654.282 467.895 654.282 466.941V436.664C654.282 436.191 654.189 435.723 654.009 435.285C653.828 434.848 653.563 434.451 653.228 434.117C652.894 433.782 652.497 433.516 652.06 433.335C651.623 433.154 651.155 433.06 650.682 433.06H659.407C659.88 433.06 660.348 433.154 660.785 433.335C661.222 433.516 661.619 433.782 661.954 434.117C662.288 434.451 662.553 434.848 662.734 435.285C662.914 435.723 663.007 436.191 663.007 436.664Z" stroke="#070707" stroke-width="2" stroke-linecap="round" stroke-linejoin="round"/>
<path d="M654.292 436.664V466.941C654.292 467.895 653.912 468.81 653.237 469.485C652.562 470.16 651.646 470.539 650.692 470.539H623.224C622.75 470.541 622.28 470.449 621.841 470.27C621.403 470.09 621.004 469.825 620.668 469.491C620.332 469.156 620.065 468.759 619.883 468.322C619.702 467.884 619.608 467.415 619.608 466.941V436.664C619.608 435.708 619.987 434.792 620.663 434.116C621.339 433.441 622.255 433.06 623.211 433.06H650.679C651.153 433.058 651.623 433.151 652.061 433.331C652.5 433.512 652.898 433.777 653.234 434.112C653.57 434.447 653.836 434.845 654.017 435.283C654.199 435.72 654.292 436.19 654.292 436.664Z" stroke="#070707" stroke-width="2" stroke-linecap="round" stroke-linejoin="round"/>
<path d="M637.51 472.221V430.353" stroke="#070707" stroke-width="2" stroke-linecap="round" stroke-linejoin="round"/>
<path d="M618.108 451.71H664.316" stroke="#070707" stroke-width="2" stroke-linecap="round" stroke-linejoin="round"/>
<path d="M643.127 421.036H645.883C647.374 421.036 648.803 421.628 649.857 422.681C650.911 423.734 651.503 425.163 651.503 426.652V427.447C651.503 428.936 650.911 430.365 649.857 431.418C648.803 432.471 647.374 433.063 645.883 433.063H637.51V426.649C637.511 425.16 638.103 423.733 639.156 422.681C640.209 421.628 641.637 421.037 643.127 421.036V421.036Z" stroke="#070707" stroke-width="2" stroke-linecap="round" stroke-linejoin="round"/>
<path d="M637.446 433.056H629.797C628.62 433.056 627.492 432.589 626.66 431.758C625.828 430.927 625.36 429.799 625.36 428.623V427.993C625.36 426.818 625.828 425.69 626.66 424.859C627.492 424.027 628.62 423.56 629.797 423.56H633.009C634.186 423.56 635.314 424.027 636.146 424.859C636.978 425.69 637.446 426.818 637.446 427.993V433.056V433.056Z" stroke="#070707" stroke-width="2" stroke-linecap="round" stroke-linejoin="round"/>
<path d="M644.506 440.735L637.445 433.063L633.125 437.38" stroke="#070707" stroke-width="2" stroke-linecap="round" stroke-linejoin="round"/>
<path d="M84.2467 422.111C91.1339 422.111 96.717 416.532 96.717 409.648C96.717 402.765 91.1339 397.186 84.2467 397.186C77.3595 397.186 71.7764 402.765 71.7764 409.648C71.7764 416.532 77.3595 422.111 84.2467 422.111Z" stroke="#070707" stroke-width="2" stroke-linecap="round" stroke-linejoin="round"/>
<path d="M115.305 360.057C117.487 360.057 119.257 358.289 119.257 356.108C119.257 353.927 117.487 352.159 115.305 352.159C113.122 352.159 111.353 353.927 111.353 356.108C111.353 358.289 113.122 360.057 115.305 360.057Z" stroke="#070707" stroke-width="2" stroke-linecap="round" stroke-linejoin="round"/>
<path d="M543.092 689.726H544.611C547.448 689.726 550.169 690.853 552.175 692.857C554.181 694.862 555.307 697.581 555.307 700.416V710.751H532.399V700.416C532.399 697.582 533.526 694.863 535.531 692.858C537.536 690.854 540.256 689.727 543.092 689.726V689.726Z" stroke="#070707" stroke-width="2" stroke-linecap="round" stroke-linejoin="round"/>
<path d="M550.819 689.726H552.338C555.175 689.726 557.895 690.853 559.901 692.857C561.907 694.862 563.034 697.581 563.034 700.416V710.751H540.113V700.416C540.113 699.012 540.39 697.621 540.928 696.323C541.467 695.026 542.255 693.847 543.25 692.854C544.244 691.861 545.424 691.074 546.723 690.537C548.022 690.001 549.414 689.725 550.819 689.726Z" stroke="#070707" stroke-width="2" stroke-linecap="round" stroke-linejoin="round"/>
<path d="M597.459 821.189H566.776L579.783 710.731H584.453L597.459 821.189Z" fill="#1C0E0C"/>
<path d="M579.783 710.731L566.776 821.189H495.473L508.483 710.731H579.783Z" stroke="#070707" stroke-width="2" stroke-linecap="round" stroke-linejoin="round"/>
<path d="M570.683 744.455H560.239L561.57 729.253C561.715 727.84 562.373 726.529 563.419 725.568C564.465 724.606 565.827 724.061 567.248 724.034V724.034C567.917 724.022 568.581 724.152 569.195 724.416C569.81 724.681 570.361 725.073 570.812 725.567C571.263 726.06 571.603 726.645 571.811 727.28C572.018 727.916 572.087 728.588 572.014 729.253L570.683 744.455Z" fill="white"/>
<path d="M569.765 743.537H559.321L560.653 728.336C560.797 726.922 561.454 725.61 562.5 724.648C563.546 723.686 564.909 723.14 566.33 723.114V723.114C566.999 723.102 567.663 723.232 568.278 723.497C568.892 723.762 569.443 724.154 569.894 724.648C570.345 725.142 570.686 725.727 570.893 726.362C571.1 726.998 571.17 727.671 571.097 728.336L569.765 743.537Z" stroke="#070707" stroke-width="2" stroke-linecap="round" stroke-linejoin="round"/>
<path d="M566.706 728.109C567.175 727.66 567.221 726.947 566.809 726.517C566.397 726.087 565.683 726.102 565.214 726.551C564.745 727 564.698 727.712 565.11 728.142C565.522 728.573 566.237 728.558 566.706 728.109Z" stroke="#070707" stroke-width="2" stroke-linecap="round" stroke-linejoin="round"/>
<path d="M565.998 727.202L567.484 709.947C567.534 709.37 567.799 708.834 568.225 708.443C568.652 708.052 569.209 707.835 569.788 707.834V707.834C570.402 707.834 570.99 708.078 571.424 708.512C571.858 708.945 572.102 709.534 572.102 710.147" stroke="#070707" stroke-width="2" stroke-linecap="round" stroke-linejoin="round"/>
<path d="M565.319 738.043C565.585 738.001 565.832 737.878 566.027 737.691C566.194 737.528 566.298 737.31 566.317 737.077C566.334 736.972 566.327 736.865 566.296 736.764C566.264 736.662 566.21 736.57 566.136 736.493C565.949 736.331 565.728 736.212 565.49 736.144L564.954 735.986C564.629 735.898 564.314 735.778 564.013 735.627C563.769 735.499 563.566 735.304 563.428 735.066C563.28 734.777 563.225 734.45 563.27 734.129C563.298 733.661 563.507 733.223 563.852 732.905C564.25 732.567 564.751 732.372 565.274 732.353H565.823C566.091 732.373 566.354 732.438 566.602 732.544C566.817 732.639 567.004 732.788 567.145 732.976C567.255 733.114 567.343 733.267 567.406 733.432C567.458 733.569 567.482 733.715 567.474 733.861C567.458 734.006 567.389 734.14 567.281 734.238C567.173 734.336 567.032 734.392 566.886 734.394C566.822 734.397 566.759 734.388 566.699 734.367C566.638 734.346 566.583 734.313 566.536 734.271C566.488 734.228 566.45 734.176 566.422 734.119C566.395 734.061 566.379 733.999 566.376 733.935C566.352 733.768 566.28 733.61 566.169 733.482C566.058 733.355 565.912 733.262 565.749 733.215L565.199 733.196C564.984 733.252 564.782 733.35 564.605 733.483C564.528 733.551 564.467 733.633 564.423 733.725C564.38 733.818 564.356 733.918 564.353 734.019C564.337 734.111 564.341 734.206 564.366 734.296C564.392 734.386 564.437 734.469 564.498 734.539C564.66 734.682 564.849 734.792 565.054 734.862L565.59 735.02C565.939 735.12 566.217 735.208 566.424 735.288C566.626 735.368 566.809 735.488 566.964 735.64C567.128 735.799 567.252 735.995 567.326 736.212C567.405 736.445 567.434 736.693 567.41 736.938C567.378 737.268 567.267 737.585 567.086 737.862C566.9 738.155 566.644 738.397 566.34 738.566C566.003 738.754 565.627 738.864 565.241 738.889H564.689C564.389 738.859 564.096 738.778 563.823 738.65C563.597 738.539 563.395 738.385 563.228 738.198C563.084 738.032 562.975 737.84 562.905 737.633C562.842 737.448 562.818 737.252 562.834 737.058C562.847 736.912 562.916 736.778 563.028 736.683C563.141 736.575 563.291 736.515 563.448 736.515C563.563 736.511 563.676 736.544 563.771 736.609C563.856 736.669 563.914 736.761 563.933 736.864C563.975 737.048 564.028 737.229 564.091 737.407C564.14 737.539 564.22 737.657 564.324 737.752C564.45 737.867 564.604 737.949 564.77 737.991L565.319 738.043Z" fill="#070707"/>
<path d="M564.905 739.541H564.882C564.852 739.538 564.823 739.53 564.796 739.516C564.769 739.502 564.746 739.483 564.727 739.46C564.707 739.437 564.693 739.41 564.684 739.381C564.675 739.352 564.672 739.322 564.676 739.292L565.322 731.782C565.327 731.721 565.357 731.666 565.403 731.627C565.45 731.588 565.51 731.569 565.57 731.575C565.631 731.581 565.687 731.61 565.726 731.656C565.765 731.703 565.785 731.763 565.78 731.824L565.134 739.331C565.129 739.388 565.103 739.442 565.061 739.48C565.018 739.519 564.962 739.541 564.905 739.541V739.541Z" fill="#070707"/>
<path d="M517.208 725.985H518.31C520.367 725.985 522.34 726.801 523.794 728.255C525.249 729.708 526.066 731.68 526.066 733.736V741.222H509.446V733.739C509.446 732.72 509.646 731.711 510.036 730.77C510.426 729.829 510.998 728.974 511.719 728.254C512.44 727.534 513.296 726.962 514.238 726.573C515.18 726.184 516.189 725.984 517.208 725.985V725.985Z" stroke="#070707" stroke-width="2" stroke-linecap="round" stroke-linejoin="round"/>
<path d="M522.815 725.985H523.917C525.974 725.985 527.947 726.801 529.401 728.255C530.856 729.708 531.673 731.68 531.673 733.736V741.222H515.05V733.739C515.05 731.683 515.867 729.712 517.321 728.258C518.776 726.804 520.748 725.988 522.805 725.988L522.815 725.985Z" stroke="#070707" stroke-width="2" stroke-linecap="round" stroke-linejoin="round"/>
<path d="M556.655 821.373H534.394L543.833 741.228H547.219L556.655 821.373Z" fill="#F4F1ED" stroke="#070707" stroke-width="2" stroke-linecap="round" stroke-linejoin="round"/>
<path d="M543.833 741.228L534.393 821.373H482.657L492.096 741.228H543.833Z" fill="#F4F1ED" stroke="#070707" stroke-width="2" stroke-linecap="round" stroke-linejoin="round"/>
<path d="M192.792 561.761H101.263C97.2815 561.761 94.0537 564.987 94.0537 568.966V671.902C94.0537 675.882 97.2815 679.108 101.263 679.108H192.792C196.774 679.108 200.001 675.882 200.001 671.902V568.966C200.001 564.987 196.774 561.761 192.792 561.761Z" fill="#C5DCDD" stroke="black" stroke-width="2" stroke-linecap="round" stroke-linejoin="round"/>
<path d="M183.156 572.861C181.999 571.706 180.526 570.919 178.922 570.601C177.319 570.282 175.656 570.446 174.146 571.071C172.635 571.696 171.344 572.755 170.435 574.114C169.526 575.472 169.041 577.069 169.041 578.703V602.773H185.576V578.703C185.577 577.618 185.364 576.544 184.949 575.541C184.534 574.538 183.924 573.628 183.156 572.861V572.861ZM177.31 578.949C176.957 578.949 176.612 578.844 176.319 578.648C176.026 578.453 175.797 578.174 175.662 577.848C175.527 577.523 175.492 577.164 175.56 576.818C175.629 576.473 175.799 576.155 176.049 575.906C176.298 575.656 176.616 575.487 176.962 575.418C177.308 575.349 177.667 575.384 177.993 575.519C178.318 575.654 178.597 575.883 178.793 576.176C178.989 576.469 179.094 576.814 179.094 577.166C179.093 577.637 178.906 578.089 178.574 578.422C178.241 578.756 177.791 578.946 177.32 578.949H177.31Z" stroke="#070707" stroke-width="2" stroke-linecap="round" stroke-linejoin="round"/>
<path d="M182.044 571.324C180.888 570.167 179.415 569.379 177.81 569.059C176.206 568.74 174.543 568.903 173.032 569.529C171.521 570.154 170.229 571.214 169.321 572.573C168.412 573.933 167.928 575.531 167.929 577.166V601.236H184.467V577.166C184.469 576.081 184.256 575.006 183.84 574.003C183.424 573 182.813 572.09 182.044 571.324ZM176.198 577.411C175.845 577.412 175.499 577.308 175.204 577.112C174.91 576.916 174.681 576.638 174.545 576.311C174.409 575.985 174.373 575.626 174.442 575.279C174.51 574.932 174.68 574.614 174.93 574.364C175.18 574.114 175.498 573.943 175.845 573.874C176.192 573.805 176.551 573.84 176.878 573.975C177.205 574.11 177.484 574.339 177.68 574.633C177.877 574.927 177.982 575.272 177.982 575.626C177.982 576.099 177.794 576.552 177.46 576.887C177.125 577.222 176.671 577.411 176.198 577.411V577.411Z" fill="#F4F1ED" stroke="#070707" stroke-width="2" stroke-linecap="round" stroke-linejoin="round"/>
<path d="M176.198 574.954V560.598C176.198 559.503 176.634 558.452 177.409 557.677C178.184 556.903 179.235 556.468 180.331 556.468C180.874 556.467 181.412 556.574 181.914 556.781C182.416 556.988 182.872 557.293 183.256 557.676C183.64 558.06 183.945 558.515 184.153 559.017C184.361 559.518 184.468 560.055 184.468 560.598V561.012" stroke="#070707" stroke-width="2" stroke-linecap="round" stroke-linejoin="round"/>
<path d="M179.559 589.632C179.413 589.287 179.192 588.978 178.913 588.728C178.65 588.488 178.344 588.299 178.011 588.173C177.675 588.046 177.222 587.903 176.654 587.746H176.615V584.901H176.654C176.921 584.976 177.163 585.122 177.356 585.322C177.548 585.523 177.682 585.771 177.746 586.041C177.777 586.248 177.883 586.437 178.044 586.571C178.205 586.705 178.409 586.775 178.618 586.768C178.731 586.77 178.843 586.748 178.948 586.706C179.052 586.663 179.147 586.599 179.226 586.519C179.306 586.443 179.37 586.35 179.414 586.248C179.457 586.146 179.479 586.036 179.478 585.925C179.47 585.688 179.413 585.456 179.31 585.243C179.186 584.981 179.025 584.739 178.832 584.523C178.583 584.227 178.269 583.993 177.914 583.839C177.512 583.674 177.087 583.572 176.654 583.535H176.615V582.666C176.615 582.555 176.571 582.448 176.492 582.369C176.413 582.291 176.306 582.246 176.195 582.246C176.083 582.246 175.977 582.291 175.898 582.369C175.819 582.448 175.775 582.555 175.775 582.666V583.538C174.971 583.56 174.203 583.871 173.61 584.413C173.197 584.873 172.939 585.45 172.873 586.064C172.807 586.678 172.936 587.297 173.241 587.834C173.49 588.213 173.836 588.52 174.243 588.722C174.735 588.958 175.247 589.147 175.775 589.287V592.478C175.507 592.408 175.257 592.28 175.044 592.103C174.869 591.952 174.728 591.766 174.628 591.557C174.537 591.357 174.43 591.07 174.304 590.695C174.257 590.53 174.153 590.387 174.01 590.291C173.855 590.19 173.672 590.14 173.487 590.146C173.366 590.142 173.247 590.163 173.135 590.209C173.024 590.255 172.923 590.323 172.841 590.411C172.76 590.487 172.696 590.58 172.651 590.682C172.607 590.784 172.583 590.894 172.582 591.005C172.586 591.317 172.651 591.625 172.773 591.912C172.916 592.244 173.117 592.547 173.367 592.807C173.655 593.105 173.994 593.347 174.369 593.524C174.812 593.724 175.285 593.85 175.768 593.899V594.545C175.768 594.656 175.813 594.763 175.891 594.841C175.97 594.92 176.077 594.964 176.188 594.964C176.3 594.964 176.407 594.92 176.485 594.841C176.564 594.763 176.608 594.656 176.608 594.545V593.873H176.647C177.245 593.835 177.826 593.659 178.344 593.359C178.799 593.092 179.174 592.706 179.426 592.242C179.67 591.793 179.795 591.29 179.791 590.779C179.794 590.385 179.715 589.994 179.559 589.632ZM174.851 586.987C174.653 586.753 174.546 586.455 174.551 586.148C174.555 585.842 174.669 585.547 174.873 585.318C175.135 585.106 175.439 584.952 175.765 584.866V587.491C175.43 587.385 175.119 587.214 174.851 586.987ZM177.717 591.98C177.43 592.279 177.053 592.475 176.644 592.539H176.605V589.523H176.644C177.038 589.632 177.407 589.82 177.727 590.075C177.852 590.193 177.95 590.336 178.013 590.496C178.077 590.655 178.105 590.827 178.095 590.998C178.102 591.362 177.966 591.715 177.717 591.98Z" fill="#070707"/>
<path d="M84.2071 601.323H69.9433C69.9433 601.323 56.2418 589.196 50.2538 582.043C49.4361 581.058 48.6879 580.018 48.0144 578.93C47.3844 577.906 47.038 576.733 47.0106 575.532C46.9831 574.33 47.2757 573.143 47.8582 572.091C48.4408 571.04 49.2925 570.162 50.3261 569.548C51.3597 568.933 52.538 568.605 53.7406 568.595H53.8957C68.3728 568.579 84.2168 594.803 84.2071 601.323Z" fill="#1C0E0C"/>
<path d="M92.076 601.323H82.039C82.039 601.323 72.3995 592.791 68.1856 587.759C67.6107 587.067 67.0848 586.335 66.6119 585.569C66.1665 584.849 65.9211 584.024 65.9008 583.177C65.8805 582.331 66.0861 581.495 66.4964 580.754C66.9067 580.013 67.507 579.395 68.2355 578.963C68.964 578.532 69.7945 578.301 70.6415 578.296H70.7482C80.9338 578.296 92.0792 596.737 92.076 601.323Z" fill="#F4F1ED"/>
<path d="M62.2394 554.898C86.2493 554.646 94.5995 588.935 94.0792 601.323H84.207C84.207 594.803 68.3727 568.592 53.8956 568.592C48.7608 568.592 45.7329 573.165 47.2808 577.312C47.2808 577.299 37.331 555.16 62.2394 554.898Z" fill="#EFAF00" stroke="black" stroke-width="2" stroke-linecap="round" stroke-linejoin="round"/>
<path d="M135.653 596.46C137.346 592.41 135.068 587.74 130.851 586.471C111.297 580.577 91.3036 601.327 91.3036 601.327H86.4111C86.4111 601.327 96.6711 571.101 126.915 575.593C133.536 576.575 142.229 582.947 135.653 596.46Z" fill="#EFAF00" stroke="black" stroke-width="2" stroke-linecap="round" stroke-linejoin="round"/>
<path d="M135.652 596.527C134.744 598.652 133.633 600.639 132.841 601.323H121.725C121.725 601.323 124.384 600.422 126.956 596.527C130.081 591.796 128.634 585.944 124.355 585.547C126.561 585.569 128.755 585.881 130.879 586.477C135.106 587.749 137.384 592.478 135.652 596.527Z" fill="#1C0E0C"/>
<path d="M139.931 600.303H67.2805C58.4695 600.303 51.3267 607.441 51.3267 616.247V701.372C51.3267 710.178 58.4695 717.316 67.2805 717.316H139.931C148.742 717.316 155.885 710.178 155.885 701.372V616.247C155.885 607.441 148.742 600.303 139.931 600.303Z" fill="#1C0E0C"/>
<path d="M120.387 600.303H50.7742C41.9631 600.303 34.8203 607.441 34.8203 616.247V701.372C34.8203 710.178 41.9631 717.316 50.7742 717.316H120.387C129.198 717.316 136.341 710.178 136.341 701.372V616.247C136.341 607.441 129.198 600.303 120.387 600.303Z" fill="#F4F1ED" stroke="#070707" stroke-width="2" stroke-linecap="round" stroke-linejoin="round"/>
<path d="M273.411 578.845H252.694C247.636 578.843 242.711 580.46 238.64 583.46C234.569 586.46 231.567 590.684 230.073 595.513L196.789 703.126C194.731 709.778 190.596 715.596 184.989 719.729C179.382 723.862 172.598 726.091 165.631 726.091H50.4186C45.8234 726.091 41.3606 727.63 37.7434 730.462C34.1262 733.294 31.5633 737.257 30.4641 741.716L26.2632 764.032C25.6592 766.481 25.6207 769.035 26.1506 771.502C26.6805 773.968 27.7649 776.281 29.3217 778.266C30.8785 780.252 32.867 781.857 35.1364 782.961C37.4058 784.064 39.8968 784.637 42.4207 784.637H182.884" stroke="#070707" stroke-width="2" stroke-linecap="round" stroke-linejoin="round"/>
<path d="M165.735 726.091H58.8691C51.9038 726.089 45.1221 723.859 39.5171 719.726C33.912 715.594 29.7781 709.776 27.7207 703.126L6.36377 617.064H223.423L196.925 703.09C194.871 709.754 190.733 715.583 185.119 719.723C179.505 723.863 172.711 726.095 165.735 726.091Z" stroke="#070707" stroke-width="2" stroke-linecap="round" stroke-linejoin="round"/>
<path d="M94.703 726.091L60.9727 617.064" stroke="#070707" stroke-width="2" stroke-linecap="round" stroke-linejoin="round"/>
<path d="M123.182 726.091L156.912 617.064" stroke="#070707" stroke-width="2" stroke-linecap="round" stroke-linejoin="round"/>
<path d="M207.647 668.027H19.4868" stroke="#070707" stroke-width="2" stroke-linecap="round" stroke-linejoin="round"/>
<path d="M167.089 827.797C176.189 827.797 183.566 820.424 183.566 811.329C183.566 802.234 176.189 794.862 167.089 794.862C157.989 794.862 150.611 802.234 150.611 811.329C150.611 820.424 157.989 827.797 167.089 827.797Z" fill="#C5DCDD"/>
<path d="M55.2176 827.797C64.3178 827.797 71.695 820.424 71.695 811.329C71.695 802.234 64.3178 794.862 55.2176 794.862C46.1174 794.862 38.7402 802.234 38.7402 811.329C38.7402 820.424 46.1174 827.797 55.2176 827.797Z" fill="#C5DCDD"/>
<path d="M163.666 824.9C172.767 824.9 180.144 817.527 180.144 808.432C180.144 799.337 172.767 791.965 163.666 791.965C154.566 791.965 147.189 799.337 147.189 808.432C147.189 817.527 154.566 824.9 163.666 824.9Z" stroke="#070707" stroke-width="2" stroke-linecap="round" stroke-linejoin="round"/>
<path d="M51.7923 824.9C60.8925 824.9 68.2697 817.527 68.2697 808.432C68.2697 799.337 60.8925 791.965 51.7923 791.965C42.6921 791.965 35.3149 799.337 35.3149 808.432C35.3149 817.527 42.6921 824.9 51.7923 824.9Z" stroke="#070707" stroke-width="2" stroke-linecap="round" stroke-linejoin="round"/>
<path d="M180.38 684.246H163.78C161.194 684.246 159.097 686.341 159.097 688.925V712.634C159.097 715.218 161.194 717.313 163.78 717.313H180.38C182.966 717.313 185.062 715.218 185.062 712.634V688.925C185.062 686.341 182.966 684.246 180.38 684.246Z" fill="#F46F40" stroke="black" stroke-width="2" stroke-linecap="round" stroke-linejoin="round"/>
<path d="M711.702 528.574H658.57V540.281H711.702V528.574Z" fill="#1C0E0C"/>
<path d="M704.716 812.205C706.535 816.95 708.048 824.006 701.675 824.006H667.218C667.218 824.006 667.118 818.758 675.164 818.057C688.785 816.872 693.07 806.082 693.26 800.976C693.651 773.467 682.92 689.527 681.133 673.292C692.747 672.934 704.307 671.558 715.681 669.181C709.841 688.942 722.412 705.155 723.391 725.023C724.36 744.837 708.562 788.755 703.986 803.779C703.608 806.46 703.899 810.064 704.716 812.205Z" fill="#FCBE9F" stroke="#070707" stroke-width="2" stroke-linecap="round" stroke-linejoin="round"/>
<path d="M704.716 812.205C704.716 812.205 709.987 824.006 702.325 824.006H666.691C666.691 824.006 665.26 819.543 674.511 818.057C675.804 817.854 679.482 817.147 679.482 817.147C679.482 817.147 678.338 820.447 686.484 820.089C694.631 819.73 698.299 812.796 704.716 812.205Z" fill="#F46F40" stroke="black" stroke-width="2" stroke-linecap="round" stroke-linejoin="round"/>
<path d="M714.685 673.385C703.942 676.39 692.933 678.35 681.811 679.235V679.235L681.123 673.291C692.736 672.933 704.295 671.558 715.668 669.181L714.685 673.385Z" fill="#1C0E0C"/>
<path d="M612.079 661.976C623.54 666.421 635.463 669.572 647.625 671.37L637.091 688.581C637.091 691.988 652.091 707.764 656.218 721.845C661.201 738.885 656.48 786.327 658.053 793.929C659.039 798.68 654.098 808.566 649.267 813.142C646.359 815.89 642.668 814.867 642.668 814.867C642.668 814.867 650.479 799.258 646.776 787.115C633.126 742.314 606.382 691.197 606.382 684.092C606.382 680.255 608.35 672.988 611.278 664.311L612.079 661.976Z" fill="#FCBE9F" stroke="#070707" stroke-width="2" stroke-linecap="round" stroke-linejoin="round"/>
<path d="M657.514 794.74C659.53 793.652 666.43 799.746 666.077 803.137L649.393 823.758H632.292C632.292 823.758 630.534 816.653 642.655 814.902C654.777 813.152 649.703 798.964 657.514 794.74Z" fill="#F46F40" stroke="black" stroke-width="2" stroke-linecap="round" stroke-linejoin="round"/>
<path d="M612.079 661.976C623.54 666.421 635.463 669.572 647.625 671.37L643.712 677.8C632.812 675.495 621.79 670.718 611.271 664.353L612.079 661.976Z" fill="#1C0E0C"/>
<path d="M728.833 665.783C728.833 665.783 670.1 685.703 609.781 661.068C609.781 661.068 653.843 563.038 657.51 555.7C661.178 548.363 660.926 536.568 660.926 536.568C660.926 536.568 659.084 517.708 653.578 511.416C648.071 505.125 644.927 498.049 647.809 489.132C650.692 480.215 654.095 462.65 654.095 462.65L666.168 458.716L708.739 457.928C708.739 457.928 714.007 464.064 712.872 475.597C711.903 485.609 699.332 513.809 710.229 536.559C715.209 544.681 732.746 559.321 734.866 584.925C737.609 617.963 728.833 665.783 728.833 665.783Z" fill="#F46F40" stroke="black" stroke-width="2" stroke-linecap="round" stroke-linejoin="round"/>
<path d="M662.836 472.4C662.606 463.428 655.591 458.099 648.498 466.968C643.476 473.239 630.524 495.368 623.118 509.53C615.827 498.482 599.654 479.337 590.657 470.911C590.961 467.19 589.164 456.901 588.072 456.132C586.867 455.283 581.182 446.973 581.182 446.973C581.182 446.973 579.088 448.097 581.027 451.537C583.289 455.529 582.789 456.794 582.789 456.794C582.789 456.794 580.249 457.211 579.942 458.887C579.635 460.563 577.654 459.385 576.746 461.93C576.216 463.418 575.004 463.996 575.343 465.482C575.666 466.874 582.572 472.678 586.13 473.682C591.051 488.425 606.353 522.177 620.742 531.11C623.848 532.538 629.041 530.939 635.695 523.036C663.434 490.117 663.033 479.976 662.836 472.4Z" fill="#FCBE9F" stroke="#070707" stroke-width="2" stroke-linecap="round" stroke-linejoin="round"/>
<path d="M695.251 424.883C694.989 431.698 693.987 442.249 710.209 460.531C718.908 470.333 692.436 473.165 678.259 465.757C668.51 460.667 666.17 458.726 666.17 458.726C666.17 458.726 675.335 457.909 678.902 448.714C681.365 442.368 678.919 435.15 677.684 424.877L695.251 424.883Z" fill="#FCBE9F" stroke="#070707" stroke-width="2" stroke-linecap="round" stroke-linejoin="round"/>
<path d="M691.076 426.217C691.169 427.089 689.373 442.894 679.814 445.791C680.738 440.753 678.46 432.227 677.949 426.207L691.076 426.217Z" fill="#1C0E0C"/>
<path d="M704.457 427.079C706.642 437.572 737.68 434.701 739.758 460.46" stroke="#070707" stroke-width="2" stroke-linecap="round" stroke-linejoin="round"/>
<path d="M706.713 479.311C695.225 474.053 679.203 458.403 695.028 434.394C693.215 433.719 691.305 432.457 690.714 430.154C689.499 425.371 673.099 419.745 672.349 409.714C672.097 406.352 674.637 398.239 691.867 399.173C709.02 400.106 710.578 420.714 705.116 426.921C705.106 426.929 705.097 426.939 705.091 426.95C707.505 438.651 740.385 438.715 735.677 467.555C734.365 475.61 722.046 486.326 706.713 479.311Z" fill="#1C0E0C"/>
<path d="M689.983 430.073C689.941 430.942 688.31 436.607 676.767 439.313C674.673 439.807 669.15 439.959 669.011 438.667C668.856 437.149 667.925 431.155 667.838 427.948C667.812 426.96 664.558 424.744 665.153 424.027C666.978 421.825 670.207 419.296 670.278 418.389C670.817 411.568 673.377 407.767 675.888 407.902C677.322 407.98 675.5 420.633 689.987 424.77C689.987 424.77 694.104 422.635 694.718 424.89C695.332 427.144 689.983 430.073 689.983 430.073Z" fill="#FCBE9F" stroke="#070707" stroke-width="2" stroke-linecap="round" stroke-linejoin="round"/>
<path d="M351.207 809.919C351.207 809.919 345.856 821.038 349.53 825.059H396.729C396.729 825.059 396.468 817.272 385.096 816.045C374.894 814.944 368.68 809.909 368.68 809.909L351.207 809.919Z" fill="#1C0E0C"/>
<path d="M397.265 825.059H348.802C348.447 825.059 348.159 825.347 348.159 825.701V827.212C348.159 827.567 348.447 827.855 348.802 827.855H397.265C397.62 827.855 397.908 827.567 397.908 827.212V825.701C397.908 825.347 397.62 825.059 397.265 825.059Z" fill="#1C0E0C"/>
<path d="M371.752 815.673L373.339 812.098C373.431 811.889 373.565 811.7 373.732 811.544C373.899 811.388 374.096 811.268 374.312 811.19C374.527 811.113 374.756 811.08 374.984 811.094C375.213 811.108 375.436 811.169 375.64 811.272V811.272C376.006 811.456 376.292 811.767 376.445 812.147C376.598 812.526 376.609 812.948 376.474 813.335L376.254 813.939" stroke="#070707" stroke-width="2" stroke-linecap="round" stroke-linejoin="round"/>
<path d="M376.416 817.336L377.95 813.671C378.031 813.488 378.148 813.324 378.295 813.187C378.441 813.051 378.614 812.946 378.802 812.879C378.991 812.811 379.191 812.783 379.39 812.796C379.59 812.808 379.785 812.861 379.964 812.951C380.283 813.112 380.533 813.384 380.667 813.715C380.801 814.047 380.809 814.416 380.691 814.753L380.558 815.26" stroke="#070707" stroke-width="2" stroke-linecap="round" stroke-linejoin="round"/>
<path d="M381.143 818.828L382.151 815.124C382.208 814.934 382.303 814.756 382.431 814.603C382.559 814.45 382.716 814.324 382.894 814.234C383.071 814.143 383.266 814.089 383.465 814.076C383.664 814.063 383.863 814.09 384.051 814.156V814.156C384.749 814.401 385.208 815.073 385.102 816.054" stroke="#070707" stroke-width="2" stroke-linecap="round" stroke-linejoin="round"/>
<path d="M267.159 809.919C267.159 809.919 261.808 821.038 265.482 825.059H310.047C310.047 825.059 309.782 817.272 298.414 816.045C288.209 814.944 281.998 809.909 281.998 809.909L267.159 809.919Z" fill="#1C0E0C"/>
<path d="M310.58 825.059H264.754C264.399 825.059 264.111 825.347 264.111 825.701V827.212C264.111 827.567 264.399 827.855 264.754 827.855H310.58C310.935 827.855 311.223 827.567 311.223 827.212V825.701C311.223 825.347 310.935 825.059 310.58 825.059Z" fill="#1C0E0C"/>
<path d="M285.055 815.672L286.641 812.098C286.734 811.889 286.868 811.701 287.036 811.545C287.203 811.389 287.401 811.269 287.616 811.191C287.832 811.114 288.06 811.081 288.289 811.095C288.517 811.109 288.741 811.169 288.945 811.272V811.272C289.311 811.456 289.597 811.767 289.75 812.147C289.902 812.527 289.912 812.949 289.776 813.335L289.556 813.939" stroke="#070707" stroke-width="2" stroke-linecap="round" stroke-linejoin="round"/>
<path d="M289.734 817.336L291.269 813.671C291.35 813.488 291.467 813.324 291.613 813.187C291.76 813.051 291.932 812.946 292.121 812.879C292.309 812.811 292.509 812.783 292.709 812.796C292.908 812.808 293.104 812.861 293.282 812.951V812.951C293.601 813.113 293.85 813.384 293.984 813.716C294.118 814.047 294.127 814.415 294.009 814.753L293.877 815.26" stroke="#070707" stroke-width="2" stroke-linecap="round" stroke-linejoin="round"/>
<path d="M294.458 818.828L295.47 815.124C295.527 814.934 295.622 814.756 295.75 814.603C295.877 814.45 296.035 814.324 296.212 814.234C296.39 814.143 296.584 814.089 296.783 814.076C296.982 814.063 297.182 814.09 297.37 814.156V814.156C298.068 814.401 298.527 815.073 298.42 816.054" stroke="#070707" stroke-width="2" stroke-linecap="round" stroke-linejoin="round"/>
<path d="M364.368 569.697C367.923 582.938 369.144 627.445 370.295 693.031C371.132 740.619 375.268 808.365 375.268 808.365C375.268 808.365 364.391 813.087 345.164 809.418C345.164 809.418 326.744 748.767 333.307 704.583C334.354 697.504 324.398 655.574 324.398 655.574C324.398 655.574 284.761 798.586 284.761 810.29C284.761 810.29 269.311 813.258 260.133 810.29C260.133 810.29 246.27 745.14 268.264 707.196C280.107 686.762 277.393 612.03 277.716 606.007C278.805 584.763 289.207 568.764 289.207 568.764L364.368 569.697Z" fill="#C5DCDD" stroke="black" stroke-width="2" stroke-linecap="round" stroke-linejoin="round"/>
<path d="M324.398 656.101C323.086 650.333 316.252 608.626 314.416 607.04C312.581 605.455 309.433 603.372 307.336 601.272" stroke="#070707" stroke-width="2" stroke-linecap="round" stroke-linejoin="round"/>
<path d="M365.612 576.163C338.106 590.812 296.345 583.642 286.389 573.847C287.239 572.106 288.177 570.409 289.201 568.764L364.375 569.697C364.912 571.827 365.325 573.985 365.612 576.163V576.163Z" fill="#1C0E0C"/>
<path d="M290.855 544.581C290.638 545.998 290.331 547.401 289.934 548.779C279.086 548.605 269.495 547.019 264.89 542.601C251.492 529.747 261.562 498.32 262.192 496.418C266.881 499.535 273.625 503.016 283.235 506.239C287.569 523.698 291.531 539.933 290.855 544.581Z" fill="#FCBE9F" stroke="#070707" stroke-width="2" stroke-linecap="round" stroke-linejoin="round"/>
<path d="M262.205 496.412C266.894 499.528 273.638 503.01 283.248 506.233C284.247 510.26 285.226 514.216 286.134 517.985C273.208 512.214 266.655 505.332 261 500.626L262.205 496.412Z" fill="#1C0E0C"/>
<path d="M461.265 438.722C460.618 437.879 459.526 437.708 459.306 437.359C459.087 437.01 459.161 436.132 458.515 435.567C457.868 435.001 456.922 435.089 456.518 434.759C456.114 434.43 456.388 433.467 455.619 432.644C454.85 431.82 453.751 431.924 453.506 431.675C453.26 431.426 457.548 423.963 455.917 422.997C454.285 422.031 445.931 432.615 444.283 435.095C440.89 440.207 440.858 446.625 440.405 448.924C440.37 448.949 440.338 448.977 440.308 449.008C439 450.581 408.045 481.249 402.539 491.474L397.637 484.046L369.49 503.969C369.49 503.969 389.949 533.681 408.042 527.393C425.169 521.441 444.645 463.606 448.238 455.645C454.146 454.479 459.087 447.92 460.696 444.929C462.787 441.073 461.911 439.562 461.265 438.722Z" fill="#FCBE9F" stroke="#070707" stroke-width="2" stroke-linecap="round" stroke-linejoin="round"/>
<path d="M399.003 486.135C394.292 496.997 386.232 506.071 375.998 512.033C373.673 509.473 371.502 506.777 369.497 503.959L397.633 484.052L399.003 486.135Z" fill="#1C0E0C"/>
<path d="M283.235 506.233C287.569 523.698 291.531 539.933 290.855 544.581C289.44 554.331 281.6 566.341 285.274 569.125C295.573 576.976 328.816 585.131 367.047 571.709C367.047 571.709 362.152 562.485 367.445 525.646C368.227 520.201 369.258 512.621 370.305 504.285H370.327C387.503 498.252 400.813 480.328 400.813 480.328C400.813 480.328 392.463 458.167 383.247 450.7C377.43 445.985 347.296 437.537 344.834 436.103L309.078 435.628C306.693 435.828 281.151 443.918 270.652 451.647C261.096 458.681 252.139 486.752 252.139 486.752C252.139 486.752 257.073 497.448 283.235 506.233Z" fill="#F4F1ED" stroke="#070707" stroke-width="2" stroke-linecap="round" stroke-linejoin="round"/>
<path d="M308.008 435.848C310.861 434.52 320.824 424.279 319.253 411.913L341.412 414.432C341.412 414.432 343.625 429.799 347.296 437.556C339.519 439.52 331.52 440.467 323.5 440.376C310.28 440.208 308.008 435.848 308.008 435.848Z" fill="#FCBE9F" stroke="#070707" stroke-width="2" stroke-linecap="round" stroke-linejoin="round"/>
<path d="M344.507 429.84C342.281 429.582 337.534 428.61 335.016 426.288C330.916 422.509 325.16 414.158 325.105 412.63L341.412 414.432C341.412 414.432 342.782 422.138 344.507 429.84Z" fill="#1C0E0C"/>
<path d="M330.457 412.746C330.457 412.746 333.944 418.957 337.518 419.852C341.092 420.746 349.284 420.049 351.775 418.56C353.313 417.642 352.848 410.024 352.554 407.256C352.496 406.723 356.703 404.944 356.432 403.319C356.144 401.595 351.375 397.506 350.954 395.216C349.72 388.496 348.046 382.15 347.497 381.914C346.605 381.523 332.577 382.414 330.919 386.241C329.261 390.068 331.349 401.918 331.349 401.918C331.349 401.918 326.825 399.273 325.468 402.806C323.458 407.983 330.457 412.746 330.457 412.746Z" fill="#FCBE9F" stroke="#070707" stroke-width="2" stroke-linecap="round" stroke-linejoin="round"/>
<path d="M356.681 377.635C361.554 381.568 354.228 397.826 339.373 386.284" stroke="black" stroke-width="2" stroke-linecap="round" stroke-linejoin="round"/>
<path d="M303.568 390.187C306.431 385.083 312.06 389.351 312.06 389.351" stroke="black" stroke-width="2" stroke-linecap="round" stroke-linejoin="round"/>
<path d="M352.167 406.365C352.167 406.365 346.673 410.831 343.574 411.209C340.475 411.587 337.903 402.279 336.946 398.165C334.8 388.612 335.053 384.795 343.936 388.053C355.653 392.352 357.999 377.867 353.478 375.429C350.599 373.879 349.203 374.36 345.144 376.398C340.62 378.684 331.039 371.114 319.645 374.46C308.945 377.599 310.577 388.392 310.577 388.392C310.577 388.392 306.357 387.627 305.591 393.792C304.987 398.669 311.757 407.308 316.976 416.971C318.439 419.68 325.536 418.062 327.284 415.33C327.284 415.33 329.624 411.342 326.696 406.501C324.295 402.535 328.428 399.334 332.545 402.793C331.941 405.567 330.632 413.06 333.11 416.926C336.817 422.706 355.921 423.569 356.397 420.355C356.872 417.142 352.167 406.365 352.167 406.365Z" fill="#1C0E0C"/>
<path d="M690.31 429.403C692.924 429.403 695.044 427.285 695.044 424.672C695.044 422.06 692.924 419.942 690.31 419.942C687.695 419.942 685.576 422.06 685.576 424.672C685.576 427.285 687.695 429.403 690.31 429.403Z" fill="#FCBE9F"/>
<path d="M688.51 427.559C688.51 427.559 687.963 425.696 688.468 424.007C688.639 423.395 688.977 422.843 689.442 422.41C689.908 421.977 690.484 421.681 691.108 421.553" stroke="#070707" stroke-width="2" stroke-linecap="round" stroke-linejoin="round"/>
<path d="M691.108 425.238L688.468 424.014" stroke="#070707" stroke-width="2" stroke-linecap="round" stroke-linejoin="round"/>
<path d="M693.826 432.175C695.041 432.175 696.026 431.19 696.026 429.976C696.026 428.761 695.041 427.777 693.826 427.777C692.61 427.777 691.625 428.761 691.625 429.976C691.625 431.19 692.61 432.175 693.826 432.175Z" fill="#F7F3EF" stroke="#070707" stroke-width="2" stroke-linecap="round" stroke-linejoin="round"/>
<path d="M672.827 420.384C673.422 420.384 673.904 419.678 673.904 418.808C673.904 417.938 673.422 417.232 672.827 417.232C672.233 417.232 671.751 417.938 671.751 418.808C671.751 419.678 672.233 420.384 672.827 420.384Z" fill="#1C0E0C"/>
<path d="M669.03 429.976C669.03 429.976 671.467 430.192 672.827 428.546" stroke="#070707" stroke-width="2" stroke-linecap="round" stroke-linejoin="round"/>
<path d="M335.153 412.33C333.01 412.924 330.719 412.643 328.784 411.549C326.848 410.455 325.427 408.637 324.833 406.496C324.239 404.354 324.52 402.065 325.614 400.131C326.709 398.196 328.528 396.776 330.671 396.182" fill="#FCBE9F"/>
<path d="M335.153 412.33C333.01 412.924 330.719 412.643 328.784 411.549C326.848 410.455 325.427 408.637 324.833 406.496C324.239 404.354 324.52 402.065 325.614 400.131C326.709 398.196 328.528 396.776 330.671 396.182" stroke="#070707" stroke-width="2" stroke-linecap="round" stroke-linejoin="round"/>
<path d="M327.804 403.287C327.804 403.287 331.149 401.114 333.656 404.956Z" fill="#FCBE9F"/>
<path d="M327.804 403.287C327.804 403.287 331.149 401.114 333.656 404.956" stroke="#070707" stroke-width="2" stroke-linecap="round" stroke-linejoin="round"/>
<path d="M331.561 403.006L329.84 406.364" stroke="#070707" stroke-width="2" stroke-linecap="round" stroke-linejoin="round"/>
<path d="M347.165 399.502C347.886 399.361 348.299 398.366 348.087 397.279C347.874 396.192 347.117 395.425 346.396 395.566C345.674 395.707 345.261 396.702 345.473 397.789C345.686 398.876 346.443 399.643 347.165 399.502Z" fill="#1C0E0C"/>
<path d="M345.27 391.146L342.197 392.805C341.629 393.112 341.417 393.822 341.724 394.39C342.031 394.958 342.741 395.169 343.309 394.862L346.382 393.203C346.951 392.896 347.163 392.187 346.856 391.619C346.548 391.051 345.839 390.839 345.27 391.146Z" fill="#1C0E0C"/>
<path d="M274.449 473.01L283.235 506.233" stroke="#070707" stroke-width="2" stroke-linecap="round" stroke-linejoin="round"/>
<path d="M382.613 453.536C382.613 453.536 363.842 454.679 360.979 475.013" stroke="#070707" stroke-width="2" stroke-linecap="round" stroke-linejoin="round"/>
</g>
<defs>
<clipPath id="clip0_903_2621">
<rect width="96" height="81" fill="white" transform="translate(56 40)"/>
</clipPath>
<clipPath id="clip1_903_2621">
<rect width="96" height="81" fill="white" transform="translate(56 40)"/>
</clipPath>
<clipPath id="clip2_903_2621">
<rect width="78.9147" height="23.223" fill="white" transform="translate(56.4648 68.4209)"/>
</clipPath>
<clipPath id="clip3_903_2621">
<rect width="78.9147" height="23.223" fill="white" transform="translate(56.4648 68.4209)"/>
</clipPath>
<clipPath id="clip4_903_2621">
<rect width="78.9147" height="23.223" fill="white" transform="translate(56.4648 68.4209)"/>
</clipPath>
<clipPath id="clip5_903_2621">
<rect width="78.9147" height="23.223" fill="white" transform="translate(56.4648 68.4209)"/>
</clipPath>
<clipPath id="clip6_903_2621">
<rect width="78.9147" height="23.223" fill="white" transform="translate(56.4648 68.4209)"/>
</clipPath>
<clipPath id="clip7_903_2621">
<rect width="78.9147" height="23.223" fill="white" transform="translate(56.4648 68.4209)"/>
</clipPath>
<clipPath id="clip8_903_2621">
<rect width="78.9147" height="23.223" fill="white" transform="translate(56.4648 68.4209)"/>
</clipPath>
<clipPath id="clip9_903_2621">
<rect width="904" height="544" fill="white" transform="translate(5 285)"/>
</clipPath>
</defs>
</svg>
