<svg width="25" height="25" viewBox="0 0 25 25" fill="none" xmlns="http://www.w3.org/2000/svg">
<path d="M15.8125 5.60867C15.8125 5.16473 16.0451 4.76345 16.314 4.41025C16.5901 4.04763 16.75 3.6175 16.75 3.15625C16.75 1.86183 15.4908 0.8125 13.9375 0.8125C12.3842 0.8125 11.125 1.86183 11.125 3.15625C11.125 3.6175 11.2849 4.04763 11.561 4.41025C11.8299 4.76345 12.0625 5.16473 12.0625 5.60867C12.0625 6.06027 11.6927 6.42496 11.2413 6.41196C9.48673 6.36142 7.75105 6.23556 6.03737 6.03749C6.27033 8.05345 6.40336 10.0998 6.43139 12.1716C6.43758 12.629 6.06616 12.9999 5.60867 13C5.16473 13 4.76345 12.7674 4.41025 12.4985C4.04763 12.2224 3.6175 12.0625 3.15625 12.0625C1.86183 12.0625 0.8125 13.3217 0.8125 14.875C0.8125 16.4283 1.86183 17.6875 3.15625 17.6875C3.6175 17.6875 4.04763 17.5276 4.41025 17.2515C4.76345 16.9826 5.16473 16.75 5.60867 16.75C5.99516 16.75 6.30196 17.076 6.27362 17.4614C6.11632 19.6014 5.84678 21.7103 5.47085 23.782C7.36822 24.0196 9.29314 24.1685 11.2413 24.2246C11.6928 24.2376 12.0626 23.8729 12.0626 23.4212C12.0626 22.9773 11.8301 22.576 11.5611 22.2228C11.285 21.8602 11.1251 21.4301 11.1251 20.9688C11.1251 19.6744 12.3843 18.6251 13.9376 18.6251C15.4909 18.6251 16.7501 19.6744 16.7501 20.9688C16.7501 21.4301 16.5903 21.8602 16.3141 22.2228C16.0452 22.576 15.8126 22.9773 15.8126 23.4212C15.8126 23.8373 16.1602 24.1696 16.5756 24.1452C18.8741 24.0101 21.1378 23.7457 23.3595 23.359C23.6963 21.4237 23.9404 19.4565 24.087 17.4623C24.1154 17.0764 23.8082 16.7501 23.4213 16.7501C22.9774 16.7501 22.5761 16.9826 22.2229 17.2516C21.8603 17.5277 21.4301 17.6876 20.9689 17.6876C19.6745 17.6876 18.6251 16.4284 18.6251 14.8751C18.6251 13.3218 19.6745 12.0626 20.9689 12.0626C21.4301 12.0626 21.8603 12.2224 22.2229 12.4986C22.5761 12.7675 22.9774 13.0001 23.4213 13.0001C23.8792 13.0001 24.251 12.6288 24.2448 12.1709C24.2141 9.90516 24.0579 7.66965 23.7827 5.47122C21.4253 5.89894 19.02 6.18894 16.5753 6.33257C16.16 6.35697 15.8125 6.02474 15.8125 5.60867Z" fill="#7DE2E3"/>
</svg>
